<?xml version="1.0" encoding="UTF-8" standalone="no"?>
<!-- Created with Inkscape (http://www.inkscape.org/) -->

<svg
   xmlns:dc="http://purl.org/dc/elements/1.1/"
   xmlns:cc="http://creativecommons.org/ns#"
   xmlns:rdf="http://www.w3.org/1999/02/22-rdf-syntax-ns#"
   xmlns:svg="http://www.w3.org/2000/svg"
   xmlns="http://www.w3.org/2000/svg"
   xmlns:sodipodi="http://sodipodi.sourceforge.net/DTD/sodipodi-0.dtd"
   xmlns:inkscape="http://www.inkscape.org/namespaces/inkscape"
   width="210mm"
   height="297mm"
   viewBox="0 0 210 297"
   version="1.1"
   id="svg8"
   inkscape:version="0.92.4 (5da689c313, 2019-01-14)"
   sodipodi:docname="przekroj.svg">
  <defs
     id="defs2">
    <clipPath
       id="clipPath28"
       clipPathUnits="userSpaceOnUse">
      <path
         inkscape:connector-curvature="0"
         id="path26"
         d="M 566.784,-48.24 H 28.512 V -793.728 H 566.784 V -48.24" />
    </clipPath>
    <clipPath
       id="clipPath470"
       clipPathUnits="userSpaceOnUse">
      <path
         inkscape:connector-curvature="0"
         id="path468"
         d="M 14.112,-48.24 V -793.728 H 581.04 V -48.24 H 14.112" />
    </clipPath>
  </defs>
  <sodipodi:namedview
     id="base"
     pagecolor="#ffffff"
     bordercolor="#666666"
     borderopacity="1.0"
     inkscape:pageopacity="0.0"
     inkscape:pageshadow="2"
     inkscape:zoom="0.35"
     inkscape:cx="400"
     inkscape:cy="560"
     inkscape:document-units="mm"
     inkscape:current-layer="layer1"
     showgrid="false"
     inkscape:window-width="1920"
     inkscape:window-height="1017"
     inkscape:window-x="-8"
     inkscape:window-y="-8"
     inkscape:window-maximized="1" />
  <metadata
     id="metadata5">
    <rdf:RDF>
      <cc:Work
         rdf:about="">
        <dc:format>image/svg+xml</dc:format>
        <dc:type
           rdf:resource="http://purl.org/dc/dcmitype/StillImage" />
        <dc:title></dc:title>
      </cc:Work>
    </rdf:RDF>
  </metadata>
  <g
     inkscape:label="Layer 1"
     inkscape:groupmode="layer"
     id="layer1">
    <g
       transform="matrix(0.35277777,0,0,-0.35277777,2.518019,-1.2563052)"
       inkscape:label="przekroj"
       id="g18">
      <g
         id="g20" />
      <g
         id="g22">
        <g
           clip-path="url(#clipPath28)"
           id="g24">
          <g
             id="g30">
            <g
               id="g32">
              <path
                 inkscape:connector-curvature="0"
                 id="path34"
                 style="fill:none;stroke:#000000;stroke-width:1.00800002;stroke-linecap:round;stroke-linejoin:round;stroke-miterlimit:10;stroke-dasharray:none;stroke-opacity:1"
                 d="m 43.3856,-152.0528 h 377.214 v -75.4428 H 269.714 v -392.3025 h 75.4428 v -90.5314 H 118.8284 v 90.5314 h 75.4428 v 392.3025 H 43.3856 v 75.4428" />
            </g>
          </g>
          <g
             id="g36">
            <g
               id="g38">
              <path
                 inkscape:connector-curvature="0"
                 id="path40"
                 style="fill:none;stroke:#000000;stroke-width:0.57599998;stroke-linecap:round;stroke-linejoin:round;stroke-miterlimit:10;stroke-dasharray:none;stroke-opacity:1"
                 d="m 43.3856,-113.5769 v 29.4226" />
            </g>
          </g>
          <g
             id="g42">
            <g
               id="g44">
              <path
                 inkscape:connector-curvature="0"
                 id="path46"
                 style="fill:none;stroke:#000000;stroke-width:0.57599998;stroke-linecap:round;stroke-linejoin:round;stroke-miterlimit:10;stroke-dasharray:none;stroke-opacity:1"
                 d="m 420.5996,-113.5769 v 29.4226" />
            </g>
          </g>
          <g
             id="g48">
            <g
               id="g50">
              <path
                 inkscape:connector-curvature="0"
                 id="path52"
                 style="fill:none;stroke:#000000;stroke-width:0.57599998;stroke-linecap:round;stroke-linejoin:round;stroke-miterlimit:10;stroke-dasharray:none;stroke-opacity:1"
                 d="m 43.3856,-95.4707 h 377.214" />
            </g>
          </g>
          <g
             id="g54">
            <g
               id="g56">
              <g
                 id="g58">
                <path
                   inkscape:connector-curvature="0"
                   id="path60"
                   style="fill:none;stroke:#000000;stroke-width:0.75;stroke-linecap:round;stroke-linejoin:round;stroke-miterlimit:10;stroke-dasharray:none;stroke-opacity:1"
                   d="m 53.5017,-82.954 2.4006,-2.4005 -22.6329,-22.6329 -2.4005,2.4006 22.6328,22.6328" />
              </g>
            </g>
          </g>
          <g
             id="g62">
            <g
               id="g64">
              <g
                 id="g66">
                <path
                   inkscape:connector-curvature="0"
                   id="path68"
                   style="fill:#000000;fill-opacity:1;fill-rule:nonzero;stroke:none"
                   d="m 53.5017,-82.954 2.4006,-2.4005 -22.6329,-22.6329 -2.4005,2.4006 22.6328,22.6328" />
              </g>
            </g>
          </g>
          <g
             id="g70">
            <g
               id="g72">
              <g
                 id="g74">
                <path
                   inkscape:connector-curvature="0"
                   id="path76"
                   style="fill:none;stroke:#000000;stroke-width:0.75;stroke-linecap:round;stroke-linejoin:round;stroke-miterlimit:10;stroke-dasharray:none;stroke-opacity:1"
                   d="m 410.4834,-107.9874 -2.4005,2.4006 22.6328,22.6328 2.4006,-2.4005 -22.6329,-22.6329" />
              </g>
            </g>
          </g>
          <g
             id="g78">
            <g
               id="g80">
              <g
                 id="g82">
                <path
                   inkscape:connector-curvature="0"
                   id="path84"
                   style="fill:#000000;fill-opacity:1;fill-rule:nonzero;stroke:none"
                   d="m 410.4834,-107.9874 -2.4005,2.4006 22.6328,22.6328 2.4006,-2.4005 -22.6329,-22.6329" />
              </g>
            </g>
          </g>
          <g
             id="g86">
            <g
               id="g88">
              <path
                 inkscape:connector-curvature="0"
                 id="path90"
                 style="fill:#000000;fill-opacity:1;fill-rule:nonzero;stroke:none"
                 d="m 227.4614,-89.4419 h -2.5783 v 22.6328 h 2.779 v -8.0743 l 0.88,1.1038 2.2463,1.1039 h 1.3663 0.7565 l 1.4319,-0.3049 0.6754,-0.305 0.6754,-0.3049 1.1116,-0.8568 0.4362,-0.5519 0.4361,-0.552 0.6831,-1.3315 0.2471,-0.7797 0.247,-0.7796 0.247,-1.6674 v -0.8877 -2.1073 l -1.0421,-3.2576 -1.0421,-1.1501 -1.0421,-1.1502 -2.501,-1.1502 h -1.459 -1.4512 l -2.2772,1.212 -0.8259,1.2119 v -2.0533 m -0.0309,8.3213 v -1.4744 l 0.4014,-2.1305 0.4014,-0.6561 0.6561,-1.073 1.7755,-1.073 h 1.1192 0.9109 l 1.5747,0.7913 0.6639,0.7912 0.6639,0.7912 0.6638,2.3582 v 1.567 1.6056 l -0.6368,2.3699 -0.6369,0.7642 -0.6368,0.7642 -1.54,0.7642 h -0.9031 -0.9109 l -1.5747,-0.7913 -0.6639,-0.7912 -0.6639,-0.7912 -0.6638,-2.2888 v -1.4975" />
            </g>
          </g>
          <g
             id="g92">
            <g
               id="g94">
              <path
                 inkscape:connector-curvature="0"
                 id="path96"
                 style="fill:none;stroke:#000000;stroke-width:0.57599998;stroke-linecap:round;stroke-linejoin:round;stroke-miterlimit:10;stroke-dasharray:none;stroke-opacity:1"
                 d="m 459.0754,-152.0528 h 29.4227" />
            </g>
          </g>
          <g
             id="g98">
            <g
               id="g100">
              <path
                 inkscape:connector-curvature="0"
                 id="path102"
                 style="fill:none;stroke:#000000;stroke-width:0.57599998;stroke-linecap:round;stroke-linejoin:round;stroke-miterlimit:10;stroke-dasharray:none;stroke-opacity:1"
                 d="m 459.0754,-227.4956 h 29.4227" />
            </g>
          </g>
          <g
             id="g104">
            <g
               id="g106">
              <path
                 inkscape:connector-curvature="0"
                 id="path108"
                 style="fill:none;stroke:#000000;stroke-width:0.57599998;stroke-linecap:round;stroke-linejoin:round;stroke-miterlimit:10;stroke-dasharray:none;stroke-opacity:1"
                 d="m 477.1817,-152.0528 v -75.4428" />
            </g>
          </g>
          <g
             id="g110">
            <g
               id="g112">
              <g
                 id="g114">
                <path
                   inkscape:connector-curvature="0"
                   id="path116"
                   style="fill:none;stroke:#000000;stroke-width:0.75;stroke-linecap:round;stroke-linejoin:round;stroke-miterlimit:10;stroke-dasharray:none;stroke-opacity:1"
                   d="m 489.6984,-162.1689 -2.4006,-2.4006 -22.6328,22.6329 2.4005,2.4005 22.6329,-22.6328" />
              </g>
            </g>
          </g>
          <g
             id="g118">
            <g
               id="g120">
              <g
                 id="g122">
                <path
                   inkscape:connector-curvature="0"
                   id="path124"
                   style="fill:#000000;fill-opacity:1;fill-rule:nonzero;stroke:none"
                   d="m 489.6984,-162.1689 -2.4006,-2.4006 -22.6328,22.6329 2.4005,2.4005 22.6329,-22.6328" />
              </g>
            </g>
          </g>
          <g
             id="g126">
            <g
               id="g128">
              <g
                 id="g130">
                <path
                   inkscape:connector-curvature="0"
                   id="path132"
                   style="fill:none;stroke:#000000;stroke-width:0.75;stroke-linecap:round;stroke-linejoin:round;stroke-miterlimit:10;stroke-dasharray:none;stroke-opacity:1"
                   d="m 464.665,-217.3794 2.4005,2.4005 22.6329,-22.6328 -2.4006,-2.4006 -22.6328,22.6329" />
              </g>
            </g>
          </g>
          <g
             id="g134">
            <g
               id="g136">
              <g
                 id="g138">
                <path
                   inkscape:connector-curvature="0"
                   id="path140"
                   style="fill:#000000;fill-opacity:1;fill-rule:nonzero;stroke:none"
                   d="m 464.665,-217.3794 2.4005,2.4005 22.6329,-22.6328 -2.4006,-2.4006 -22.6328,22.6329" />
              </g>
            </g>
          </g>
          <g
             id="g142">
            <g
               id="g144">
              <path
                 inkscape:connector-curvature="0"
                 id="path146"
                 style="fill:#000000;fill-opacity:1;fill-rule:nonzero;stroke:none"
                 d="m 471.1529,-185.243 h -2.0687 l 1.2196,-0.7796 1.2197,-2.2926 v -1.513 -0.9804 l -0.5404,-1.8024 -0.5403,-0.8221 -0.5404,-0.8221 -1.5091,-1.2737 -0.9688,-0.4515 -0.9687,-0.4516 -2.227,-0.4516 h -1.2583 -1.2273 l -2.227,0.4091 -0.9997,0.4091 -0.9996,0.4092 -1.5323,1.2273 -0.5326,0.8183 -0.5327,0.8182 -0.5326,1.8295 v 1.0112 0.741 l 0.3126,1.32 0.3127,0.579 0.3126,0.5789 0.8144,0.9418 0.5017,0.3628 h -8.1206 v 2.7635 h 22.6328 v -2.5783 m -8.1824,-8.7845 h 1.5748 l 2.3543,0.6639 0.7797,0.6638 0.7796,0.6639 0.7797,1.567 v 0.9031 0.9109 l -0.745,1.5477 -0.7449,0.6369 -0.7449,0.6368 -2.2733,0.6368 h -1.5284 -1.6828 l -2.4702,-0.6484 -0.7873,-0.6484 -0.7874,-0.6484 -0.7873,-1.5979 v -0.9495 -0.9263 l 0.7564,-1.5477 0.7565,-0.6214 0.7565,-0.6214 2.3853,-0.6214 h 1.6287" />
            </g>
          </g>
          <g
             id="g148">
            <g
               id="g150">
              <path
                 inkscape:connector-curvature="0"
                 id="path152"
                 style="fill:none;stroke:#000000;stroke-width:0.57599998;stroke-linecap:round;stroke-linejoin:round;stroke-miterlimit:10;stroke-dasharray:none;stroke-opacity:1"
                 d="m 459.0754,-227.4956 h 29.4227" />
            </g>
          </g>
          <g
             id="g154">
            <g
               id="g156">
              <path
                 inkscape:connector-curvature="0"
                 id="path158"
                 style="fill:none;stroke:#000000;stroke-width:0.57599998;stroke-linecap:round;stroke-linejoin:round;stroke-miterlimit:10;stroke-dasharray:none;stroke-opacity:1"
                 d="m 459.0754,-619.7981 h 29.4227" />
            </g>
          </g>
          <g
             id="g160">
            <g
               id="g162">
              <path
                 inkscape:connector-curvature="0"
                 id="path164"
                 style="fill:none;stroke:#000000;stroke-width:0.57599998;stroke-linecap:round;stroke-linejoin:round;stroke-miterlimit:10;stroke-dasharray:none;stroke-opacity:1"
                 d="M 477.1817,-227.4956 V -619.7981" />
            </g>
          </g>
          <g
             id="g166">
            <g
               id="g168">
              <g
                 id="g170">
                <path
                   inkscape:connector-curvature="0"
                   id="path172"
                   style="fill:none;stroke:#000000;stroke-width:0.75;stroke-linecap:round;stroke-linejoin:round;stroke-miterlimit:10;stroke-dasharray:none;stroke-opacity:1"
                   d="m 489.6984,-237.6117 -2.4006,-2.4006 -22.6328,22.6329 2.4005,2.4005 22.6329,-22.6328" />
              </g>
            </g>
          </g>
          <g
             id="g174">
            <g
               id="g176">
              <g
                 id="g178">
                <path
                   inkscape:connector-curvature="0"
                   id="path180"
                   style="fill:#000000;fill-opacity:1;fill-rule:nonzero;stroke:none"
                   d="m 489.6984,-237.6117 -2.4006,-2.4006 -22.6328,22.6329 2.4005,2.4005 22.6329,-22.6328" />
              </g>
            </g>
          </g>
          <g
             id="g182">
            <g
               id="g184">
              <g
                 id="g186">
                <path
                   inkscape:connector-curvature="0"
                   id="path188"
                   style="fill:none;stroke:#000000;stroke-width:0.75;stroke-linecap:round;stroke-linejoin:round;stroke-miterlimit:10;stroke-dasharray:none;stroke-opacity:1"
                   d="m 464.665,-609.682 2.4005,2.4006 22.6329,-22.6329 -2.4006,-2.4005 -22.6328,22.6328" />
              </g>
            </g>
          </g>
          <g
             id="g190">
            <g
               id="g192">
              <g
                 id="g194">
                <path
                   inkscape:connector-curvature="0"
                   id="path196"
                   style="fill:#000000;fill-opacity:1;fill-rule:nonzero;stroke:none"
                   d="m 464.665,-609.682 2.4005,2.4006 22.6329,-22.6329 -2.4006,-2.4005 -22.6328,22.6328" />
              </g>
            </g>
          </g>
          <g
             id="g198">
            <g
               id="g200">
              <path
                 inkscape:connector-curvature="0"
                 id="path202"
                 style="fill:#000000;fill-opacity:1;fill-rule:nonzero;stroke:none"
                 d="m 471.1529,-467.1525 h -22.6328 v 2.7789 h 8.1206 l -1.127,0.9726 -1.127,2.4547 v 1.4821 0.9109 l 0.359,1.5825 0.3589,0.6715 0.359,0.6716 0.9919,0.961 0.633,0.2895 0.6329,0.2895 1.8372,0.2895 h 1.2042 10.3901 v -2.779 h -10.3901 -1.0421 l -1.5168,-0.4515 -0.4747,-0.4516 -0.4748,-0.4516 -0.4747,-1.2775 v -0.826 -0.6175 l 0.3203,-1.1618 0.3204,-0.5442 0.3203,-0.5442 0.8684,-0.7758 0.5481,-0.2316 0.5481,-0.2315 1.513,-0.2316 h 0.9649 8.9697 v -2.7789 m -6.7929,16.5037 h -2.7944 v 8.5375 h 2.7944 v -8.5375 m 6.7929,22.2469 h -2.0687 l 1.2196,-0.7796 1.2197,-2.2927 v -1.5129 -0.9804 l -0.5404,-1.8024 -0.5403,-0.8221 -0.5404,-0.8221 -1.5091,-1.2737 -0.9688,-0.4516 -0.9687,-0.4516 -2.227,-0.4515 h -1.2583 -1.2273 l -2.227,0.4091 -0.9997,0.4091 -0.9996,0.4091 -1.5323,1.2274 -0.5326,0.8182 -0.5327,0.8183 -0.5326,1.8294 v 1.0113 0.741 l 0.3126,1.32 0.3127,0.5789 0.3126,0.579 0.8144,0.9417 0.5017,0.3628 h -8.1206 v 2.7635 h 22.6328 v -2.5782 m -8.1824,-8.7845 h 1.5748 l 2.3543,0.6638 0.7797,0.6639 0.7796,0.6639 0.7797,1.567 v 0.9031 0.9109 l -0.745,1.5477 -0.7449,0.6368 -0.7449,0.6369 -2.2733,0.6368 h -1.5284 -1.6828 l -2.4702,-0.6484 -0.7873,-0.6484 -0.7874,-0.6484 -0.7873,-1.5979 v -0.9495 -0.9263 l 0.7564,-1.5477 0.7565,-0.6214 0.7565,-0.6214 2.3853,-0.6214 h 1.6287 m 1.3895,32.2201 h -2.7944 v 8.5375 h 2.7944 v -8.5375 m 6.7929,22.2469 h -2.0687 l 1.2196,-0.7796 1.2197,-2.2926 v -1.513 -0.9804 l -0.5404,-1.8024 -0.5403,-0.8221 -0.5404,-0.8221 -1.5091,-1.2737 -0.9688,-0.4516 -0.9687,-0.4515 -2.227,-0.4516 h -1.2583 -1.2273 l -2.227,0.4091 -0.9997,0.4091 -0.9996,0.4091 -1.5323,1.2274 -0.5326,0.8182 -0.5327,0.8183 -0.5326,1.8295 v 1.0112 0.741 l 0.3126,1.32 0.3127,0.579 0.3126,0.5789 0.8144,0.9417 0.5017,0.3629 h -8.1206 v 2.7634 h 22.6328 v -2.5782 m -8.1824,-8.7845 h 1.5748 l 2.3543,0.6639 0.7797,0.6638 0.7796,0.6639 0.7797,1.567 v 0.9031 0.9109 l -0.745,1.5477 -0.7449,0.6369 -0.7449,0.6368 -2.2733,0.6368 h -1.5284 -1.6828 l -2.4702,-0.6484 -0.7873,-0.6484 -0.7874,-0.6484 -0.7873,-1.5979 v -0.9495 -0.9263 l 0.7564,-1.5477 0.7565,-0.6214 0.7565,-0.6214 2.3853,-0.6214 h 1.6287" />
            </g>
          </g>
          <g
             id="g204">
            <g
               id="g206">
              <path
                 inkscape:connector-curvature="0"
                 id="path208"
                 style="fill:none;stroke:#000000;stroke-width:0.57599998;stroke-linecap:round;stroke-linejoin:round;stroke-miterlimit:10;stroke-dasharray:none;stroke-opacity:1"
                 d="m 459.0754,-619.7981 h 29.4227" />
            </g>
          </g>
          <g
             id="g210">
            <g
               id="g212">
              <path
                 inkscape:connector-curvature="0"
                 id="path214"
                 style="fill:none;stroke:#000000;stroke-width:0.57599998;stroke-linecap:round;stroke-linejoin:round;stroke-miterlimit:10;stroke-dasharray:none;stroke-opacity:1"
                 d="m 459.0754,-710.3295 h 29.4227" />
            </g>
          </g>
          <g
             id="g216">
            <g
               id="g218">
              <path
                 inkscape:connector-curvature="0"
                 id="path220"
                 style="fill:none;stroke:#000000;stroke-width:0.57599998;stroke-linecap:round;stroke-linejoin:round;stroke-miterlimit:10;stroke-dasharray:none;stroke-opacity:1"
                 d="m 477.1817,-619.7981 v -90.5314" />
            </g>
          </g>
          <g
             id="g222">
            <g
               id="g224">
              <g
                 id="g226">
                <path
                   inkscape:connector-curvature="0"
                   id="path228"
                   style="fill:none;stroke:#000000;stroke-width:0.75;stroke-linecap:round;stroke-linejoin:round;stroke-miterlimit:10;stroke-dasharray:none;stroke-opacity:1"
                   d="m 489.6984,-629.9143 -2.4006,-2.4005 -22.6328,22.6328 2.4005,2.4006 22.6329,-22.6329" />
              </g>
            </g>
          </g>
          <g
             id="g230">
            <g
               id="g232">
              <g
                 id="g234">
                <path
                   inkscape:connector-curvature="0"
                   id="path236"
                   style="fill:#000000;fill-opacity:1;fill-rule:nonzero;stroke:none"
                   d="m 489.6984,-629.9143 -2.4006,-2.4005 -22.6328,22.6328 2.4005,2.4006 22.6329,-22.6329" />
              </g>
            </g>
          </g>
          <g
             id="g238">
            <g
               id="g240">
              <g
                 id="g242">
                <path
                   inkscape:connector-curvature="0"
                   id="path244"
                   style="fill:none;stroke:#000000;stroke-width:0.75;stroke-linecap:round;stroke-linejoin:round;stroke-miterlimit:10;stroke-dasharray:none;stroke-opacity:1"
                   d="m 464.665,-700.2133 2.4005,2.4005 22.6329,-22.6328 -2.4006,-2.4006 -22.6328,22.6329" />
              </g>
            </g>
          </g>
          <g
             id="g246">
            <g
               id="g248">
              <g
                 id="g250">
                <path
                   inkscape:connector-curvature="0"
                   id="path252"
                   style="fill:#000000;fill-opacity:1;fill-rule:nonzero;stroke:none"
                   d="m 464.665,-700.2133 2.4005,2.4005 22.6329,-22.6328 -2.4006,-2.4006 -22.6328,22.6329" />
              </g>
            </g>
          </g>
          <g
             id="g254">
            <g
               id="g256">
              <path
                 inkscape:connector-curvature="0"
                 id="path258"
                 style="fill:#000000;fill-opacity:1;fill-rule:nonzero;stroke:none"
                 d="m 471.1529,-660.5326 h -2.0687 l 1.2196,-0.7796 1.2197,-2.2927 v -1.5129 -0.9804 l -0.5404,-1.8024 -0.5403,-0.8221 -0.5404,-0.8221 -1.5091,-1.2737 -0.9688,-0.4516 -0.9687,-0.4516 -2.227,-0.4515 h -1.2583 -1.2273 l -2.227,0.4091 -0.9997,0.4091 -0.9996,0.4091 -1.5323,1.2274 -0.5326,0.8182 -0.5327,0.8183 -0.5326,1.8294 v 1.0113 0.741 l 0.3126,1.32 0.3127,0.5789 0.3126,0.579 0.8144,0.9417 0.5017,0.3628 h -8.1206 v 2.7635 h 22.6328 v -2.5782 m -8.1824,-8.7845 h 1.5748 l 2.3543,0.6638 0.7797,0.6639 0.7796,0.6639 0.7797,1.567 v 0.9031 0.9109 l -0.745,1.5477 -0.7449,0.6368 -0.7449,0.6369 -2.2733,0.6368 h -1.5284 -1.6828 l -2.4702,-0.6484 -0.7873,-0.6484 -0.7874,-0.6484 -0.7873,-1.5979 v -0.9495 -0.9263 l 0.7564,-1.5477 0.7565,-0.6214 0.7565,-0.6214 2.3853,-0.6214 h 1.6287" />
            </g>
          </g>
          <g
             id="g260">
            <g
               id="g262">
              <path
                 inkscape:connector-curvature="0"
                 id="path264"
                 style="fill:none;stroke:#000000;stroke-width:0.57599998;stroke-linecap:round;stroke-linejoin:round;stroke-miterlimit:10;stroke-dasharray:none;stroke-opacity:1"
                 d="m 515.6575,-152.0528 h 29.4227" />
            </g>
          </g>
          <g
             id="g266">
            <g
               id="g268">
              <path
                 inkscape:connector-curvature="0"
                 id="path270"
                 style="fill:none;stroke:#000000;stroke-width:0.57599998;stroke-linecap:round;stroke-linejoin:round;stroke-miterlimit:10;stroke-dasharray:none;stroke-opacity:1"
                 d="m 515.6575,-710.3295 h 29.4227" />
            </g>
          </g>
          <g
             id="g272">
            <g
               id="g274">
              <path
                 inkscape:connector-curvature="0"
                 id="path276"
                 style="fill:none;stroke:#000000;stroke-width:0.57599998;stroke-linecap:round;stroke-linejoin:round;stroke-miterlimit:10;stroke-dasharray:none;stroke-opacity:1"
                 d="M 533.7638,-152.0528 V -710.3295" />
            </g>
          </g>
          <g
             id="g278">
            <g
               id="g280">
              <g
                 id="g282">
                <path
                   inkscape:connector-curvature="0"
                   id="path284"
                   style="fill:none;stroke:#000000;stroke-width:0.75;stroke-linecap:round;stroke-linejoin:round;stroke-miterlimit:10;stroke-dasharray:none;stroke-opacity:1"
                   d="m 546.2805,-162.1689 -2.4006,-2.4006 -22.6328,22.6329 2.4005,2.4005 22.6329,-22.6328" />
              </g>
            </g>
          </g>
          <g
             id="g286">
            <g
               id="g288">
              <g
                 id="g290">
                <path
                   inkscape:connector-curvature="0"
                   id="path292"
                   style="fill:#000000;fill-opacity:1;fill-rule:nonzero;stroke:none"
                   d="m 546.2805,-162.1689 -2.4006,-2.4006 -22.6328,22.6329 2.4005,2.4005 22.6329,-22.6328" />
              </g>
            </g>
          </g>
          <g
             id="g294">
            <g
               id="g296">
              <g
                 id="g298">
                <path
                   inkscape:connector-curvature="0"
                   id="path300"
                   style="fill:none;stroke:#000000;stroke-width:0.75;stroke-linecap:round;stroke-linejoin:round;stroke-miterlimit:10;stroke-dasharray:none;stroke-opacity:1"
                   d="m 521.2471,-700.2133 2.4005,2.4005 22.6329,-22.6328 -2.4006,-2.4006 -22.6328,22.6329" />
              </g>
            </g>
          </g>
          <g
             id="g302">
            <g
               id="g304">
              <g
                 id="g306">
                <path
                   inkscape:connector-curvature="0"
                   id="path308"
                   style="fill:#000000;fill-opacity:1;fill-rule:nonzero;stroke:none"
                   d="m 521.2471,-700.2133 2.4005,2.4005 22.6329,-22.6328 -2.4006,-2.4006 -22.6328,22.6329" />
              </g>
            </g>
          </g>
          <g
             id="g310">
            <g
               id="g312">
              <path
                 inkscape:connector-curvature="0"
                 id="path314"
                 style="fill:#000000;fill-opacity:1;fill-rule:nonzero;stroke:none"
                 d="m 528.1056,-437.8683 h -22.6329 v 2.779 h 8.1207 l -1.127,0.9726 -1.1271,2.4547 v 1.4821 0.9109 l 0.359,1.5824 0.3589,0.6716 0.359,0.6716 0.9919,0.961 0.633,0.2895 0.633,0.2895 1.8371,0.2894 h 1.2042 10.3902 v -2.7789 h -10.3902 -1.0421 l -1.5168,-0.4516 -0.4747,-0.4516 -0.4748,-0.4515 -0.4747,-1.2776 v -0.8259 -0.6176 l 0.3204,-1.1617 0.3203,-0.5442 0.3204,-0.5442 0.8684,-0.7758 0.548,-0.2316 0.5481,-0.2316 1.513,-0.2315 h 0.9649 8.9698 v -2.779" />
            </g>
          </g>
          <g
             id="g316">
            <g
               id="g318">
              <path
                 inkscape:connector-curvature="0"
                 id="path320"
                 style="fill:none;stroke:#000000;stroke-width:0.57599998;stroke-linecap:round;stroke-linejoin:round;stroke-miterlimit:10;stroke-dasharray:none;stroke-opacity:1"
                 d="M 118.8284,-748.8053 V -778.228" />
            </g>
          </g>
          <g
             id="g322">
            <g
               id="g324">
              <path
                 inkscape:connector-curvature="0"
                 id="path326"
                 style="fill:none;stroke:#000000;stroke-width:0.57599998;stroke-linecap:round;stroke-linejoin:round;stroke-miterlimit:10;stroke-dasharray:none;stroke-opacity:1"
                 d="M 345.1568,-748.8053 V -778.228" />
            </g>
          </g>
          <g
             id="g328">
            <g
               id="g330">
              <path
                 inkscape:connector-curvature="0"
                 id="path332"
                 style="fill:none;stroke:#000000;stroke-width:0.57599998;stroke-linecap:round;stroke-linejoin:round;stroke-miterlimit:10;stroke-dasharray:none;stroke-opacity:1"
                 d="M 118.8284,-766.9116 H 345.1568" />
            </g>
          </g>
          <g
             id="g334">
            <g
               id="g336">
              <g
                 id="g338">
                <path
                   inkscape:connector-curvature="0"
                   id="path340"
                   style="fill:none;stroke:#000000;stroke-width:0.75;stroke-linecap:round;stroke-linejoin:round;stroke-miterlimit:10;stroke-dasharray:none;stroke-opacity:1"
                   d="m 128.9445,-754.3949 2.4006,-2.4005 -22.6329,-22.6329 -2.4005,2.4006 22.6328,22.6328" />
              </g>
            </g>
          </g>
          <g
             id="g342">
            <g
               id="g344">
              <g
                 id="g346">
                <path
                   inkscape:connector-curvature="0"
                   id="path348"
                   style="fill:#000000;fill-opacity:1;fill-rule:nonzero;stroke:none"
                   d="m 128.9445,-754.3949 2.4006,-2.4005 -22.6329,-22.6329 -2.4005,2.4006 22.6328,22.6328" />
              </g>
            </g>
          </g>
          <g
             id="g350">
            <g
               id="g352">
              <g
                 id="g354">
                <path
                   inkscape:connector-curvature="0"
                   id="path356"
                   style="fill:none;stroke:#000000;stroke-width:0.75;stroke-linecap:round;stroke-linejoin:round;stroke-miterlimit:10;stroke-dasharray:none;stroke-opacity:1"
                   d="m 335.0406,-779.4283 -2.4005,2.4006 22.6328,22.6328 2.4006,-2.4005 -22.6329,-22.6329" />
              </g>
            </g>
          </g>
          <g
             id="g358">
            <g
               id="g360">
              <g
                 id="g362">
                <path
                   inkscape:connector-curvature="0"
                   id="path364"
                   style="fill:#000000;fill-opacity:1;fill-rule:nonzero;stroke:none"
                   d="m 335.0406,-779.4283 -2.4005,2.4006 22.6328,22.6328 2.4006,-2.4005 -22.6329,-22.6329" />
              </g>
            </g>
          </g>
          <g
             id="g366">
            <g
               id="g368">
              <path
                 inkscape:connector-curvature="0"
                 id="path370"
                 style="fill:#000000;fill-opacity:1;fill-rule:nonzero;stroke:none"
                 d="m 227.4614,-760.8828 h -2.5783 v 22.6328 h 2.779 v -8.0743 l 0.88,1.1038 2.2463,1.1039 h 1.3663 0.7565 l 1.4319,-0.3049 0.6754,-0.305 0.6754,-0.3049 1.1116,-0.8568 0.4362,-0.5519 0.4361,-0.552 0.6831,-1.3315 0.2471,-0.7797 0.247,-0.7796 0.247,-1.6674 v -0.8877 -2.1073 l -1.0421,-3.2576 -1.0421,-1.1501 -1.0421,-1.1502 -2.501,-1.1502 h -1.459 -1.4512 l -2.2772,1.212 -0.8259,1.2119 v -2.0533 m -0.0309,8.3213 v -1.4744 l 0.4014,-2.1305 0.4014,-0.6561 0.6561,-1.073 1.7755,-1.073 h 1.1192 0.9109 l 1.5747,0.7913 0.6639,0.7912 0.6639,0.7912 0.6638,2.3582 v 1.567 1.6056 l -0.6368,2.3698 -0.6369,0.7643 -0.6368,0.7642 -1.54,0.7642 h -0.9031 -0.9109 l -1.5747,-0.7913 -0.6639,-0.7912 -0.6639,-0.7912 -0.6638,-2.2888 v -1.4975" />
            </g>
          </g>
          <g
             id="g372">
            <g
               id="g374">
              <path
                 inkscape:connector-curvature="0"
                 id="path376"
                 style="fill:none;stroke:#000000;stroke-width:0.57599998;stroke-linecap:round;stroke-linejoin:round;stroke-miterlimit:10;stroke-dasharray:none;stroke-opacity:1"
                 d="m 194.2712,-372.4975 v -29.4227" />
            </g>
          </g>
          <g
             id="g378">
            <g
               id="g380">
              <path
                 inkscape:connector-curvature="0"
                 id="path382"
                 style="fill:none;stroke:#000000;stroke-width:0.57599998;stroke-linecap:round;stroke-linejoin:round;stroke-miterlimit:10;stroke-dasharray:none;stroke-opacity:1"
                 d="m 269.714,-372.4975 v -29.4227" />
            </g>
          </g>
          <g
             id="g384">
            <g
               id="g386">
              <path
                 inkscape:connector-curvature="0"
                 id="path388"
                 style="fill:none;stroke:#000000;stroke-width:0.57599998;stroke-linecap:round;stroke-linejoin:round;stroke-miterlimit:10;stroke-dasharray:none;stroke-opacity:1"
                 d="M 194.2712,-390.6038 H 269.714" />
            </g>
          </g>
          <g
             id="g390">
            <g
               id="g392">
              <g
                 id="g394">
                <path
                   inkscape:connector-curvature="0"
                   id="path396"
                   style="fill:none;stroke:#000000;stroke-width:0.75;stroke-linecap:round;stroke-linejoin:round;stroke-miterlimit:10;stroke-dasharray:none;stroke-opacity:1"
                   d="m 204.3873,-378.087 2.4006,-2.4006 -22.6329,-22.6329 -2.4005,2.4006 22.6328,22.6329" />
              </g>
            </g>
          </g>
          <g
             id="g398">
            <g
               id="g400">
              <g
                 id="g402">
                <path
                   inkscape:connector-curvature="0"
                   id="path404"
                   style="fill:#000000;fill-opacity:1;fill-rule:nonzero;stroke:none"
                   d="m 204.3873,-378.087 2.4006,-2.4006 -22.6329,-22.6329 -2.4005,2.4006 22.6328,22.6329" />
              </g>
            </g>
          </g>
          <g
             id="g406">
            <g
               id="g408">
              <g
                 id="g410">
                <path
                   inkscape:connector-curvature="0"
                   id="path412"
                   style="fill:none;stroke:#000000;stroke-width:0.75;stroke-linecap:round;stroke-linejoin:round;stroke-miterlimit:10;stroke-dasharray:none;stroke-opacity:1"
                   d="m 259.5978,-403.1205 -2.4005,2.4006 22.6328,22.6329 2.4006,-2.4006 -22.6329,-22.6329" />
              </g>
            </g>
          </g>
          <g
             id="g414">
            <g
               id="g416">
              <g
                 id="g418">
                <path
                   inkscape:connector-curvature="0"
                   id="path420"
                   style="fill:#000000;fill-opacity:1;fill-rule:nonzero;stroke:none"
                   d="m 259.5978,-403.1205 -2.4005,2.4006 22.6328,22.6329 2.4006,-2.4006 -22.6329,-22.6329" />
              </g>
            </g>
          </g>
          <g
             id="g422">
            <g
               id="g424">
              <path
                 inkscape:connector-curvature="0"
                 id="path426"
                 style="fill:#000000;fill-opacity:1;fill-rule:nonzero;stroke:none"
                 d="m 227.4614,-384.575 h -2.5783 v 22.6328 h 2.779 v -8.0743 l 0.88,1.1038 2.2463,1.1039 h 1.3663 0.7565 l 1.4319,-0.3049 0.6754,-0.3049 0.6754,-0.3049 1.1116,-0.8569 0.4362,-0.5519 0.4361,-0.5519 0.6831,-1.3316 0.2471,-0.7796 0.247,-0.7797 0.247,-1.6673 v -0.8878 -2.1073 l -1.0421,-3.2575 -1.0421,-1.1502 -1.0421,-1.1502 -2.501,-1.1501 h -1.459 -1.4512 l -2.2772,1.2119 -0.8259,1.2119 v -2.0533 m -0.0309,8.3213 v -1.4743 l 0.4014,-2.1306 0.4014,-0.6561 0.6561,-1.073 1.7755,-1.0729 h 1.1192 0.9109 l 1.5747,0.7912 0.6639,0.7912 0.6639,0.7912 0.6638,2.3583 v 1.567 1.6056 l -0.6368,2.3698 -0.6369,0.7642 -0.6368,0.7642 -1.54,0.7642 h -0.9031 -0.9109 l -1.5747,-0.7912 -0.6639,-0.7913 -0.6639,-0.7912 -0.6638,-2.2887 v -1.4976" />
            </g>
          </g>
          <g
             id="g428">
            <g
               id="g430">
              <path
                 inkscape:connector-curvature="0"
                 id="path432"
                 style="fill:#000000;fill-opacity:1;fill-rule:nonzero;stroke:none"
                 d="m 250.0268,-90.2002 v 1.2412 l -0.4678,-0.7317 -1.3756,-0.7318 h -0.9077 -0.5882 l -1.0815,0.3242 -0.4933,0.3242 -0.4932,0.3242 -0.7642,0.9055 -0.271,0.5812 -0.2709,0.5813 -0.271,1.3362 v 0.7549 0.7364 l 0.2455,1.3362 0.2455,0.5998 0.2454,0.5998 0.7365,0.9194 0.4909,0.3196 0.4909,0.3195 1.0977,0.3196 h 0.6068 0.4446 l 0.792,-0.1876 0.3473,-0.1875 0.3474,-0.1876 0.5651,-0.4886 0.2176,-0.3011 v 4.8724 h 1.6581 v -13.5797 h -1.5469 m -5.2707,4.9094 v -0.9448 l 0.3983,-1.4126 0.3983,-0.4678 0.3983,-0.4678 0.9402,-0.4678 h 0.5419 0.5466 l 0.9286,0.447 0.3821,0.4469 0.3821,0.4469 0.3821,1.364 v 0.9171 1.0097 l -0.3891,1.4821 -0.389,0.4724 -0.3891,0.4724 -0.9587,0.4724 h -0.5697 -0.5558 l -0.9286,-0.4539 -0.3728,-0.4539 -0.3729,-0.4539 -0.3728,-1.4311 v -0.9773 m 17.7388,-3.3069 v -1.6025 h -8.9759 l -0.009,0.301 0.0973,0.579 0.1065,0.2779 0.1714,0.4585 0.5488,0.9032 0.3775,0.4446 0.3775,0.4446 1.0907,1.0282 0.7133,0.5836 1.1069,0.9078 1.496,1.4381 0.389,0.5303 0.3891,0.5303 0.389,1.0027 v 0.4724 0.4956 l -0.3543,0.836 -0.3543,0.3404 -0.3543,0.3404 -0.924,0.3405 h -0.5697 -0.6021 l -0.9633,-0.3613 -0.3613,-0.3613 -0.3613,-0.3612 -0.3659,-1.0004 -0.005,-0.6392 -1.7137,0.176 0.088,0.9587 0.6623,1.4613 0.5744,0.5025 0.5743,0.5025 1.5423,0.5026 h 0.968 0.9772 l 1.547,-0.5419 0.5696,-0.5419 0.5697,-0.5419 0.5697,-1.3432 v -0.8012 -0.4076 l -0.1667,-0.8012 -0.1668,-0.3937 -0.1667,-0.3937 -0.5535,-0.8291 -0.3867,-0.4353 -0.3867,-0.4354 -1.2853,-1.1949 -0.8985,-0.7596 -0.7503,-0.6299 -0.9634,-0.8545 -0.213,-0.2246 -0.2131,-0.2247 -0.352,-0.4515 -0.1389,-0.227 h 6.6601" />
            </g>
          </g>
          <g
             id="g434">
            <g
               id="g436">
              <path
                 inkscape:connector-curvature="0"
                 id="path438"
                 style="fill:#000000;fill-opacity:1;fill-rule:nonzero;stroke:none"
                 d="m 250.0268,-761.6411 v 1.2412 l -0.4678,-0.7317 -1.3756,-0.7318 h -0.9077 -0.5882 l -1.0815,0.3242 -0.4933,0.3242 -0.4932,0.3242 -0.7642,0.9055 -0.271,0.5812 -0.2709,0.5813 -0.271,1.3362 v 0.7549 0.7364 l 0.2455,1.3362 0.2455,0.5998 0.2454,0.5998 0.7365,0.9194 0.4909,0.3196 0.4909,0.3195 1.0977,0.3196 h 0.6068 0.4446 l 0.792,-0.1876 0.3473,-0.1875 0.3474,-0.1876 0.5651,-0.4887 0.2176,-0.301 v 4.8724 h 1.6581 v -13.5797 h -1.5469 m -5.2707,4.9094 v -0.9448 l 0.3983,-1.4126 0.3983,-0.4678 0.3983,-0.4678 0.9402,-0.4678 h 0.5419 0.5466 l 0.9286,0.447 0.3821,0.4469 0.3821,0.4469 0.3821,1.364 v 0.9171 1.0097 l -0.3891,1.4821 -0.389,0.4724 -0.3891,0.4724 -0.9587,0.4724 h -0.5697 -0.5558 l -0.9286,-0.4539 -0.3728,-0.4539 -0.3729,-0.4539 -0.3728,-1.4311 v -0.9773 m 15.2563,-4.9094 h -1.6673 v 10.6248 l -0.3011,-0.2872 -0.7897,-0.5743 -0.4886,-0.2872 -0.4886,-0.2871 -0.8777,-0.4308 -0.389,-0.1435 v 1.6117 l 0.6993,0.3289 1.2227,0.7966 0.5234,0.4678 0.5234,0.4678 0.741,0.9078 0.2177,0.44 h 1.0745 v -13.6353" />
            </g>
          </g>
          <g
             id="g440">
            <g
               id="g442">
              <path
                 inkscape:connector-curvature="0"
                 id="path444"
                 style="fill:#000000;fill-opacity:1;fill-rule:nonzero;stroke:none"
                 d="m 471.9112,-648.4993 v -1.6674 h -10.6248 l 0.2872,-0.301 0.5743,-0.7897 0.2871,-0.4886 0.2872,-0.4887 0.4307,-0.8777 0.1436,-0.389 h -1.6118 l -0.3288,0.6994 -0.7966,1.2227 -0.4678,0.5234 -0.4678,0.5233 -0.9078,0.7411 -0.44,0.2176 v 1.0746 h 13.6353" />
            </g>
          </g>
          <g
             id="g446">
            <g
               id="g448">
              <path
                 inkscape:connector-curvature="0"
                 id="path450"
                 style="fill:#000000;fill-opacity:1;fill-rule:nonzero;stroke:none"
                 d="m 470.3087,-169.7298 h 1.6025 v -8.976 l -0.3011,-0.009 -0.5789,0.0972 -0.2779,0.1065 -0.4585,0.1714 -0.9032,0.5488 -0.4446,0.3775 -0.4446,0.3775 -1.0282,1.0907 -0.5836,0.7133 -0.9078,1.1069 -1.4381,1.496 -0.5303,0.3891 -0.5303,0.389 -1.0027,0.3891 h -0.4725 -0.4955 l -0.836,-0.3544 -0.3404,-0.3543 -0.3405,-0.3543 -0.3404,-0.924 v -0.5697 -0.6021 l 0.3613,-0.9633 0.3612,-0.3613 0.3613,-0.3612 1.0004,-0.3659 0.6392,-0.005 -0.176,-1.7136 -0.9588,0.088 -1.4612,0.6623 -0.5025,0.5743 -0.5026,0.5743 -0.5025,1.5423 v 0.968 0.9773 l 0.5419,1.5469 0.5419,0.5697 0.5419,0.5697 1.3431,0.5696 h 0.8013 0.4076 l 0.8012,-0.1667 0.3937,-0.1667 0.3937,-0.1668 0.829,-0.5534 0.4354,-0.3868 0.4354,-0.3867 1.1949,-1.2853 0.7596,-0.8985 0.6299,-0.7503 0.8545,-0.9634 0.2246,-0.213 0.2247,-0.2131 0.4515,-0.352 0.227,-0.1389 v 6.6602" />
            </g>
          </g>
          <g
             id="g452">
            <g
               id="g454">
              <path
                 inkscape:connector-curvature="0"
                 id="path456"
                 style="fill:#000000;fill-opacity:1;fill-rule:nonzero;stroke:none"
                 d="m 471.9112,-418.4586 v -1.6674 h -10.6248 l 0.2872,-0.3011 0.5743,-0.7896 0.2871,-0.4887 0.2872,-0.4886 0.4307,-0.8777 0.1436,-0.389 h -1.6118 l -0.3288,0.6993 -0.7966,1.2228 -0.4678,0.5233 -0.4678,0.5234 -0.9078,0.7411 -0.44,0.2176 v 1.0746 h 13.6353" />
            </g>
          </g>
          <g
             id="g458">
            <g
               id="g460">
              <path
                 inkscape:connector-curvature="0"
                 id="path462"
                 style="fill:#000000;fill-opacity:1;fill-rule:nonzero;stroke:none"
                 d="m 470.3087,-368.676 h 1.6025 v -8.9759 l -0.3011,-0.009 -0.5789,0.0973 -0.2779,0.1065 -0.4585,0.1714 -0.9032,0.5488 -0.4446,0.3775 -0.4446,0.3774 -1.0282,1.0908 -0.5836,0.7132 -0.9078,1.107 -1.4381,1.496 -0.5303,0.389 -0.5303,0.3891 -1.0027,0.389 h -0.4725 -0.4955 l -0.836,-0.3543 -0.3404,-0.3543 -0.3405,-0.3543 -0.3404,-0.924 v -0.5697 -0.6021 l 0.3613,-0.9634 0.3612,-0.3612 0.3613,-0.3613 1.0004,-0.3659 0.6392,-0.005 -0.176,-1.7137 -0.9588,0.088 -1.4612,0.6623 -0.5025,0.5743 -0.5026,0.5743 -0.5025,1.5423 v 0.968 0.9773 l 0.5419,1.5469 0.5419,0.5697 0.5419,0.5697 1.3431,0.5697 h 0.8013 0.4076 l 0.8012,-0.1668 0.3937,-0.1667 0.3937,-0.1667 0.829,-0.5535 0.4354,-0.3867 0.4354,-0.3868 1.1949,-1.2852 0.7596,-0.8985 0.6299,-0.7504 0.8545,-0.9633 0.2246,-0.2131 0.2247,-0.213 0.4515,-0.352 0.227,-0.139 v 6.6602" />
            </g>
          </g>
        </g>
      </g>
      <g
         id="g464">
        <g
           clip-path="url(#clipPath470)"
           id="g466" />
      </g>
    </g>
  </g>
</svg>
